ffmpeg started on 2016-12-03 at 07:32:29
Report written to "Output/x264/results/ffmpeg/old_town_cross_2160p50placebo5000k.log"
Command line:
Tools/ffmpeg/ffmpeg -benchmark -y -i Input/y4m/old_town_cross_2160p50.y4m -c:v libx264 -preset placebo -b:v 5000k -an Output/x264/encoded/old_town_cross_2160p50placebo5000k.mkv
ffmpeg version N-82227-gdb23fde Copyright (c) 2000-2016 the FFmpeg developers
  built with gcc 5.4.0 (Ubuntu 5.4.0-6ubuntu1~16.04.2) 20160609
  configuration: --prefix=/home/jaroslav/ffmpeg_build --pkg-config-flags=--static --extra-cflags=-I/home/jaroslav/ffmpeg_build/include --extra-ldflags=-L/home/jaroslav/ffmpeg_build/lib --bindir=/home/jaroslav/bin --enable-gpl --enable-libass --enable-libfdk-aac --enable-libfreetype --enable-libmp3lame --enable-libopus --enable-libtheora --enable-libvorbis --enable-libvpx --enable-libx264 --enable-libx265 --enable-nvenc --enable-libmfx --enable-libxvid --enable-libgsm --enable-libopencore-amrnb --enable-version3 --enable-nonfree
  libavutil      55. 35.100 / 55. 35.100
  libavcodec     57. 66.101 / 57. 66.101
  libavformat    57. 57.100 / 57. 57.100
  libavdevice    57.  2.100 / 57.  2.100
  libavfilter     6. 66.100 /  6. 66.100
  libswscale      4.  3.100 /  4.  3.100
  libswresample   2.  4.100 /  2.  4.100
  libpostproc    54.  2.100 / 54.  2.100
Input #0, yuv4mpegpipe, from 'Input/y4m/old_town_cross_2160p50.y4m':
  Duration: 00:00:10.00, start: 0.000000, bitrate: 4976642 kb/s
    Stream #0:0: Video: rawvideo (I420 / 0x30323449), yuv420p(progressive), 3840x2160, SAR 1:1 DAR 16:9, 50 fps, 50 tbr, 50 tbn, 50 tbc
[libx264 @ 0x26d0120] using SAR=1/1
[libx264 @ 0x26d0120] DPB size (16 frames, 518400 mbs) > level limit (5 frames, 184320 mbs)
[libx264 @ 0x26d0120] using cpu capabilities: MMX2 SSE2Fast SSSE3 SSE4.2 AVX FMA3 AVX2 LZCNT BMI2
[libx264 @ 0x26d0120] profile High, level 5.2
[libx264 @ 0x26d0120] 264 - core 148 - H.264/MPEG-4 AVC codec - Copyleft 2003-2016 - http://www.videolan.org/x264.html - options: cabac=1 ref=16 deblock=1:0:0 analyse=0x3:0x133 me=tesa subme=11 psy=1 psy_rd=1.00:0.00 mixed_ref=1 me_range=24 chroma_me=1 trellis=2 8x8dct=1 cqm=0 deadzone=21,11 fast_pskip=0 chroma_qp_offset=-2 threads=6 lookahead_threads=1 sliced_threads=0 nr=0 decimate=1 interlaced=0 bluray_compat=0 constrained_intra=0 bframes=16 b_pyramid=2 b_adapt=2 b_bias=0 direct=3 weightb=1 open_gop=0 weightp=2 keyint=250 keyint_min=25 scenecut=40 intra_refresh=0 rc_lookahead=60 rc=abr mbtree=1 bitrate=5000 ratetol=1.0 qcomp=0.60 qpmin=0 qpmax=69 qpstep=4 ip_ratio=1.40 aq=1:1.00
Output #0, matroska, to 'Output/x264/encoded/old_town_cross_2160p50placebo5000k.mkv':
  Metadata:
    encoder         : Lavf57.57.100
    Stream #0:0: Video: h264 (libx264) (H264 / 0x34363248), yuv420p, 3840x2160 [SAR 1:1 DAR 16:9], q=-1--1, 5000 kb/s, 50 fps, 1k tbn, 50 tbc
    Metadata:
      encoder         : Lavc57.66.101 libx264
    Side data:
      cpb: bitrate max/min/avg: 0/0/5000000 buffer size: 0 vbv_delay: -1
Stream mapping:
  Stream #0:0 -> #0:0 (rawvideo (native) -> h264 (libx264))
Press [q] to stop, [?] for help
frame=   58 fps=0.0 q=0.0 size=       0kB time=00:00:00.00 bitrate=N/A speed=   0x    frame=   84 fps=3.3 q=0.0 size=       0kB time=00:00:00.00 bitrate=N/A speed=   0x    frame=   89 fps=3.3 q=40.0 size=       1kB time=-00:00:00.01 bitrate=N/A speed=N/A    frame=   90 fps=3.1 q=40.0 size=       1kB time=00:00:00.00 bitrate=5888.0kbits/s speed=3.48e-05x    frame=   91 fps=2.8 q=40.0 size=       1kB time=00:00:00.02 bitrate= 280.4kbits/s speed=0.000656x    frame=   92 fps=2.8 q=40.0 size=       1kB time=00:00:00.04 bitrate= 143.6kbits/s speed=0.00125x    frame=   96 fps=2.7 q=40.0 size=       1kB time=00:00:00.12 bitrate=  48.7kbits/s speed=0.00346x    frame=   97 fps=2.5 q=40.0 size=       1kB time=00:00:00.14 bitrate=  41.8kbits/s speed=0.00366x    frame=   98 fps=2.5 q=46.0 size=       1kB time=00:00:00.16 bitrate=  36.6kbits/s speed=0.00409x    frame=  102 fps=2.5 q=42.0 size=       1kB time=00:00:00.24 bitrate=  24.4kbits/s speed=0.00588x    frame=  103 fps=2.3 q=42.0 size=       1kB time=00:00:00.26 bitrate=  22.6kbits/s speed=0.00587x    frame=  105 fps=2.3 q=44.0 size=       1kB time=00:00:00.30 bitrate=  19.6kbits/s speed=0.00668x    frame=  106 fps=2.2 q=45.0 size=       1kB time=00:00:00.32 bitrate=  18.3kbits/s speed=0.00675x    frame=  109 fps=2.1 q=44.0 size=       1kB time=00:00:00.38 bitrate=  15.5kbits/s speed=0.00749x    frame=  112 fps=2.2 q=45.0 size=       1kB time=00:00:00.44 bitrate=  13.4kbits/s speed=0.00854x    frame=  114 fps=2.0 q=45.0 size=       1kB time=00:00:00.48 bitrate=  12.2kbits/s speed=0.00846x    frame=  115 fps=2.0 q=45.0 size=       1kB time=00:00:00.50 bitrate=  11.8kbits/s speed=0.00871x    frame=  116 fps=2.0 q=44.0 size=       1kB time=00:00:00.52 bitrate=  11.3kbits/s speed=0.00893x    frame=  120 fps=1.9 q=43.0 size=       1kB time=00:00:00.60 bitrate=   9.8kbits/s speed=0.00943x    frame=  121 fps=1.9 q=43.0 size=       1kB time=00:00:00.62 bitrate=   9.5kbits/s speed=0.00954x    frame=  123 fps=1.9 q=41.0 size=       1kB time=00:00:00.66 bitrate=   8.9kbits/s speed=0.01x    frame=  126 fps=1.8 q=42.0 size=       1kB time=00:00:00.72 bitrate=   8.2kbits/s speed=0.0102x    frame=  127 fps=1.8 q=41.0 size=       1kB time=00:00:00.74 bitrate=   7.9kbits/s speed=0.0103x    frame=  128 fps=1.6 q=41.0 size=       1kB time=00:00:00.76 bitrate=   7.7kbits/s speed=0.00975x    frame=  129 fps=1.6 q=41.0 size=       1kB time=00:00:00.78 bitrate=   7.5kbits/s speed=0.00988x    frame=  130 fps=1.6 q=41.0 size=       1kB time=00:00:00.80 bitrate=   7.4kbits/s speed=0.00999x    frame=  134 fps=1.5 q=39.0 size=       1kB time=00:00:00.88 bitrate=   6.7kbits/s speed=0.0101x    frame=  135 fps=1.5 q=39.0 size=       1kB time=00:00:00.90 bitrate=   6.5kbits/s speed=0.0103x    frame=  136 fps=1.5 q=40.0 size=       1kB time=00:00:00.92 bitrate=   6.4kbits/s speed=0.0103x    frame=  137 fps=1.5 q=40.0 size=       1kB time=00:00:00.94 bitrate=   6.3kbits/s speed=0.0105x    frame=  140 fps=1.4 q=39.0 size=       1kB time=00:00:01.00 bitrate=   5.9kbits/s speed=0.00989x    frame=  141 fps=1.4 q=39.0 size=       1kB time=00:00:01.02 bitrate=   5.8kbits/s speed=0.01x    frame=  142 fps=1.4 q=39.0 size=       1kB time=00:00:01.04 bitrate=   5.7kbits/s speed=0.0101x    frame=  146 fps=1.3 q=39.0 size=       1kB time=00:00:01.12 bitrate=   5.3kbits/s speed=0.0101x    frame=  147 fps=1.3 q=39.0 size=       1kB time=00:00:01.14 bitrate=   5.2kbits/s speed=0.0102x    frame=  148 fps=1.3 q=39.0 size=       1kB time=00:00:01.16 bitrate=   5.1kbits/s speed=0.0102x    frame=  150 fps=1.2 q=39.0 size=       1kB time=00:00:01.20 bitrate=   4.9kbits/s speed=0.00967x    frame=  151 fps=1.2 q=39.0 size=       1kB time=00:00:01.22 bitrate=   4.8kbits/s speed=0.00975x    frame=  152 fps=1.2 q=39.0 size=       1kB time=00:00:01.24 bitrate=   4.7kbits/s speed=0.00982x    frame=  156 fps=1.2 q=39.0 size=       1kB time=00:00:01.32 bitrate=   4.5kbits/s speed=0.00974x    frame=  157 fps=1.2 q=38.0 size=       1kB time=00:00:01.34 bitrate=   4.4kbits/s speed=0.00983x    frame=  158 fps=1.1 q=38.0 size=       1kB time=00:00:01.36 bitrate=   4.3kbits/s speed=0.00977x    frame=  160 fps=1.1 q=38.0 size=       1kB time=00:00:01.40 bitrate=   4.2kbits/s speed=0.00952x    frame=  161 fps=1.1 q=38.0 size=       1kB time=00:00:01.42 bitrate=   4.1kbits/s speed=0.00953x    frame=  162 fps=1.1 q=38.0 size=       1kB time=00:00:01.44 bitrate=   4.1kbits/s speed=0.00952x    frame=  163 fps=1.1 q=38.0 size=       1kB time=00:00:01.46 bitrate=   4.0kbits/s speed=0.00954x    frame=  164 fps=1.1 q=38.0 size=       1kB time=00:00:01.48 bitrate=   4.0kbits/s speed=0.00948x    frame=  166 fps=1.0 q=38.0 size=       1kB time=00:00:01.52 bitrate=   3.9kbits/s speed=0.00939x    frame=  167 fps=1.0 q=38.0 size=       1kB time=00:00:01.54 bitrate=   3.8kbits/s speed=0.00936x    frame=  168 fps=1.0 q=38.0 size=       1kB time=00:00:01.56 bitrate=   3.8kbits/s speed=0.00936x    frame=  169 fps=1.0 q=38.0 size=       1kB time=00:00:01.58 bitrate=   3.7kbits/s speed=0.00941x    frame=  170 fps=0.9 q=38.0 size=       1kB time=00:00:01.60 bitrate=   3.7kbits/s speed=0.00892x    frame=  171 fps=0.9 q=38.0 size=       1kB time=00:00:01.62 bitrate=   3.6kbits/s speed=0.00896x    frame=  172 fps=0.9 q=38.0 size=       1kB time=00:00:01.64 bitrate=   3.6kbits/s speed=0.00901x    frame=  176 fps=0.9 q=38.0 size=       1kB time=00:00:01.72 bitrate=   3.4kbits/s speed=0.00893x    frame=  177 fps=0.9 q=38.0 size=       1kB time=00:00:01.74 bitrate=   3.4kbits/s speed=0.00889x    frame=  178 fps=0.9 q=38.0 size=       1kB time=00:00:01.76 bitrate=   3.3kbits/s speed=0.00894x    frame=  179 fps=0.9 q=38.0 size=       1kB time=00:00:01.78 bitrate=   3.3kbits/s speed=0.00899x    frame=  181 fps=0.9 q=38.0 size=       1kB time=00:00:01.82 bitrate=   3.2kbits/s speed=0.00866x    frame=  182 fps=0.9 q=38.0 size=       1kB time=00:00:01.84 bitrate=   3.2kbits/s speed=0.00869x    frame=  183 fps=0.9 q=38.0 size=       1kB time=00:00:01.86 bitrate=   3.2kbits/s speed=0.00874x    frame=  184 fps=0.9 q=38.0 size=       1kB time=00:00:01.88 bitrate=   3.1kbits/s speed=0.0088x    frame=  185 fps=0.9 q=38.0 size=       1kB time=00:00:01.90 bitrate=   3.1kbits/s speed=0.0088x    frame=  187 fps=0.8 q=37.0 size=       1kB time=00:00:01.94 bitrate=   3.0kbits/s speed=0.00863x    frame=  188 fps=0.8 q=38.0 size=       1kB time=00:00:01.96 bitrate=   3.0kbits/s speed=0.00868x    frame=  189 fps=0.8 q=38.0 size=       1kB time=00:00:01.98 bitrate=   3.0kbits/s speed=0.00866x    frame=  190 fps=0.8 q=37.0 size=       1kB time=00:00:02.00 bitrate=   2.9kbits/s speed=0.00867x    frame=  191 fps=0.8 q=37.0 size=       1kB time=00:00:02.02 bitrate=   2.9kbits/s speed=0.00873x    frame=  192 fps=0.8 q=37.0 size=       1kB time=00:00:02.04 bitrate=   2.9kbits/s speed=0.00841x    frame=  193 fps=0.8 q=37.0 size=       1kB time=00:00:02.06 bitrate=   2.9kbits/s speed=0.00845x    frame=  194 fps=0.8 q=37.0 size=       1kB time=00:00:02.08 bitrate=   2.8kbits/s speed=0.00847x    frame=  198 fps=0.8 q=37.0 size=       1kB time=00:00:02.16 bitrate=   2.7kbits/s speed=0.00839x    frame=  199 fps=0.8 q=37.0 size=       1kB time=00:00:02.18 bitrate=   2.7kbits/s speed=0.00843x    frame=  200 fps=0.8 q=37.0 size=       1kB time=00:00:02.20 bitrate=   2.7kbits/s speed=0.00842x    frame=  202 fps=0.8 q=37.0 size=       1kB time=00:00:02.24 bitrate=   2.6kbits/s speed=0.0085x    frame=  203 fps=0.7 q=37.0 size=       1kB time=00:00:02.26 bitrate=   2.6kbits/s speed=0.0083x    frame=  204 fps=0.7 q=37.0 size=       1kB time=00:00:02.28 bitrate=   2.6kbits/s speed=0.00825x    frame=  205 fps=0.7 q=37.0 size=       1kB time=00:00:02.30 bitrate=   2.6kbits/s speed=0.00829x    frame=  208 fps=0.7 q=37.0 size=       1kB time=00:00:02.36 bitrate=   2.5kbits/s speed=0.00848x    frame=  209 fps=0.7 q=37.0 size=       1kB time=00:00:02.38 bitrate=   2.5kbits/s speed=0.00831x    frame=  210 fps=0.7 q=37.0 size=       1kB time=00:00:02.40 bitrate=   2.5kbits/s speed=0.00806x    frame=  211 fps=0.7 q=37.0 size=       1kB time=00:00:02.42 bitrate=   2.4kbits/s speed=0.00809x    frame=  212 fps=0.7 q=37.0 size=       1kB time=00:00:02.44 bitrate=   2.4kbits/s speed=0.00813x    frame=  216 fps=0.7 q=37.0 size=       1kB time=00:00:02.52 bitrate=   2.3kbits/s speed=0.00808x    frame=  217 fps=0.7 q=37.0 size=       1kB time=00:00:02.54 bitrate=   2.3kbits/s speed=0.00811x    frame=  218 fps=0.7 q=37.0 size=       1kB time=00:00:02.56 bitrate=   2.3kbits/s speed=0.00804x    frame=  221 fps=0.7 q=37.0 size=       1kB time=00:00:02.62 bitrate=   2.2kbits/s speed=0.008x    frame=  222 fps=0.7 q=37.0 size=       1kB time=00:00:02.64 bitrate=   2.2kbits/s speed=0.00802x    frame=  223 fps=0.7 q=37.0 size=       1kB time=00:00:02.66 bitrate=   2.2kbits/s speed=0.00803x    frame=  224 fps=0.7 q=37.0 size=       1kB time=00:00:02.68 bitrate=   2.2kbits/s speed=0.00801x    frame=  226 fps=0.7 q=37.0 size=       1kB time=00:00:02.72 bitrate=   2.2kbits/s speed=0.00812x    frame=  227 fps=0.7 q=37.0 size=       1kB time=00:00:02.74 bitrate=   2.1kbits/s speed=0.00803x    frame=  228 fps=0.7 q=37.0 size=       1kB time=00:00:02.76 bitrate=   2.1kbits/s speed=0.00802x    frame=  229 fps=0.7 q=37.0 size=       1kB time=00:00:02.78 bitrate=   2.1kbits/s speed=0.00802x    frame=  230 fps=0.7 q=37.0 size=       1kB time=00:00:02.80 bitrate=   2.1kbits/s speed=0.00794x    frame=  232 fps=0.6 q=37.0 size=       1kB time=00:00:02.84 bitrate=   2.1kbits/s speed=0.00787x    frame=  233 fps=0.6 q=37.0 size=       1kB time=00:00:02.86 bitrate=   2.1kbits/s speed=0.0079x    frame=  234 fps=0.6 q=37.0 size=       1kB time=00:00:02.88 bitrate=   2.0kbits/s speed=0.00792x    frame=  236 fps=0.6 q=37.0 size=       1kB time=00:00:02.92 bitrate=   2.0kbits/s speed=0.00799x    frame=  237 fps=0.6 q=37.0 size=       1kB time=00:00:02.94 bitrate=   2.0kbits/s speed=0.00802x    frame=  238 fps=0.6 q=37.0 size=       1kB time=00:00:02.96 bitrate=   2.0kbits/s speed=0.00789x    frame=  239 fps=0.6 q=37.0 size=       1kB time=00:00:02.98 bitrate=   2.0kbits/s speed=0.00787x    frame=  240 fps=0.6 q=37.0 size=       1kB time=00:00:03.00 bitrate=   2.0kbits/s speed=0.00777x    frame=  241 fps=0.6 q=37.0 size=       1kB time=00:00:03.02 bitrate=   1.9kbits/s speed=0.0078x    frame=  242 fps=0.6 q=37.0 size=       1kB time=00:00:03.04 bitrate=   1.9kbits/s speed=0.00782x    frame=  245 fps=0.6 q=37.0 size=       1kB time=00:00:03.10 bitrate=   1.9kbits/s speed=0.00795x    frame=  246 fps=0.6 q=37.0 size=       1kB time=00:00:03.12 bitrate=   1.9kbits/s speed=0.00779x    frame=  247 fps=0.6 q=37.0 size=       1kB time=00:00:03.14 bitrate=   1.9kbits/s speed=0.0078x    frame=  248 fps=0.6 q=37.0 size=       1kB time=00:00:03.16 bitrate=   1.9kbits/s speed=0.00781x    frame=  249 fps=0.6 q=37.0 size=       1kB time=00:00:03.18 bitrate=   1.9kbits/s speed=0.00783x    frame=  251 fps=0.6 q=37.0 size=       1kB time=00:00:03.22 bitrate=   1.8kbits/s speed=0.00775x    frame=  252 fps=0.6 q=37.0 size=       1kB time=00:00:03.24 bitrate=   1.8kbits/s speed=0.00775x    frame=  253 fps=0.6 q=37.0 size=       1kB time=00:00:03.26 bitrate=   1.8kbits/s speed=0.00776x    frame=  254 fps=0.6 q=37.0 size=       1kB time=00:00:03.28 bitrate=   1.8kbits/s speed=0.00776x    frame=  255 fps=0.6 q=37.0 size=       1kB time=00:00:03.30 bitrate=   1.8kbits/s speed=0.00779x    frame=  257 fps=0.6 q=37.0 size=       1kB time=00:00:03.34 bitrate=   1.8kbits/s speed=0.00779x    frame=  258 fps=0.6 q=37.0 size=       1kB time=00:00:03.36 bitrate=   1.8kbits/s speed=0.00776x    frame=  259 fps=0.6 q=37.0 size=       1kB time=00:00:03.38 bitrate=   1.7kbits/s speed=0.00766x    frame=  260 fps=0.6 q=37.0 size=       1kB time=00:00:03.40 bitrate=   1.7kbits/s speed=0.00769x    frame=  261 fps=0.6 q=37.0 size=       1kB time=00:00:03.42 bitrate=   1.7kbits/s speed=0.00771x    frame=  265 fps=0.6 q=37.0 size=       1kB time=00:00:03.50 bitrate=   1.7kbits/s speed=0.00763x    frame=  266 fps=0.6 q=37.0 size=       1kB time=00:00:03.52 bitrate=   1.7kbits/s speed=0.00764x    frame=  267 fps=0.6 q=37.0 size=       1kB time=00:00:03.54 bitrate=   1.7kbits/s speed=0.00765x    frame=  270 fps=0.6 q=37.0 size=       1kB time=00:00:03.60 bitrate=   1.6kbits/s speed=0.00766x    frame=  271 fps=0.6 q=37.0 size=       1kB time=00:00:03.62 bitrate=   1.6kbits/s speed=0.0076x    frame=  272 fps=0.6 q=37.0 size=       1kB time=00:00:03.64 bitrate=   1.6kbits/s speed=0.00762x    frame=  274 fps=0.6 q=37.0 size=       1kB time=00:00:03.68 bitrate=   1.6kbits/s speed=0.0077x    frame=  275 fps=0.6 q=37.0 size=       1kB time=00:00:03.70 bitrate=   1.6kbits/s speed=0.00773x    frame=  276 fps=0.6 q=37.0 size=       1kB time=00:00:03.72 bitrate=   1.6kbits/s speed=0.00763x    frame=  277 fps=0.6 q=37.0 size=       1kB time=00:00:03.74 bitrate=   1.6kbits/s speed=0.00758x    frame=  278 fps=0.6 q=36.0 size=       1kB time=00:00:03.76 bitrate=   1.6kbits/s speed=0.00759x    frame=  279 fps=0.6 q=36.0 size=       1kB time=00:00:03.78 bitrate=   1.6kbits/s speed=0.00762x    frame=  281 fps=0.6 q=37.0 size=       1kB time=00:00:03.82 bitrate=   1.5kbits/s speed=0.00768x    frame=  282 fps=0.6 q=37.0 size=       1kB time=00:00:03.84 bitrate=   1.5kbits/s speed=0.00761x    frame=  283 fps=0.6 q=37.0 size=       1kB time=00:00:03.86 bitrate=   1.5kbits/s speed=0.00757x    frame=  284 fps=0.6 q=37.0 size=       1kB time=00:00:03.88 bitrate=   1.5kbits/s speed=0.00753x    frame=  285 fps=0.6 q=36.0 size=       1kB time=00:00:03.90 bitrate=   1.5kbits/s speed=0.00755x    frame=  286 fps=0.6 q=36.0 size=       1kB time=00:00:03.92 bitrate=   1.5kbits/s speed=0.00756x    frame=  289 fps=0.6 q=36.0 size=       1kB time=00:00:03.98 bitrate=   1.5kbits/s speed=0.00759x    frame=  290 fps=0.5 q=36.0 size=       1kB time=00:00:04.00 bitrate=   1.5kbits/s speed=0.0075x    frame=  291 fps=0.5 q=36.0 size=       1kB time=00:00:04.02 bitrate=   1.5kbits/s speed=0.00752x    frame=  293 fps=0.5 q=36.0 size=       1kB time=00:00:04.06 bitrate=   1.4kbits/s speed=0.00759x    frame=  295 fps=0.5 q=36.0 size=       1kB time=00:00:04.10 bitrate=   1.4kbits/s speed=0.00761x    frame=  296 fps=0.5 q=36.0 size=       1kB time=00:00:04.12 bitrate=   1.4kbits/s speed=0.00753x    frame=  297 fps=0.5 q=36.0 size=       1kB time=00:00:04.14 bitrate=   1.4kbits/s speed=0.00745x    frame=  298 fps=0.5 q=36.0 size=       1kB time=00:00:04.16 bitrate=   1.4kbits/s speed=0.00747x    frame=  299 fps=0.5 q=36.0 size=       1kB time=00:00:04.18 bitrate=   1.4kbits/s speed=0.00748x    frame=  302 fps=0.5 q=36.0 size=       1kB time=00:00:04.24 bitrate=   1.4kbits/s speed=0.00756x    frame=  303 fps=0.5 q=36.0 size=       1kB time=00:00:04.26 bitrate=   1.4kbits/s speed=0.00746x    frame=  304 fps=0.5 q=36.0 size=       1kB time=00:00:04.28 bitrate=   1.4kbits/s speed=0.00747x    frame=  305 fps=0.5 q=36.0 size=       1kB time=00:00:04.30 bitrate=   1.4kbits/s speed=0.00749x    frame=  307 fps=0.5 q=36.0 size=       1kB time=00:00:04.34 bitrate=   1.4kbits/s speed=0.00743x    frame=  308 fps=0.5 q=36.0 size=       1kB time=00:00:04.36 bitrate=   1.4kbits/s speed=0.00744x    frame=  309 fps=0.5 q=36.0 size=       1kB time=00:00:04.38 bitrate=   1.3kbits/s speed=0.00743x    frame=  310 fps=0.5 q=36.0 size=       1kB time=00:00:04.40 bitrate=   1.3kbits/s speed=0.00745x    frame=  311 fps=0.5 q=36.0 size=       1kB time=00:00:04.42 bitrate=   1.3kbits/s speed=0.00746x    frame=  312 fps=0.5 q=36.0 size=       1kB time=00:00:04.44 bitrate=   1.3kbits/s speed=0.00749x    frame=  313 fps=0.5 q=36.0 size=       1kB time=00:00:04.46 bitrate=   1.3kbits/s speed=0.00744x    frame=  314 fps=0.5 q=36.0 size=       1kB time=00:00:04.48 bitrate=   1.3kbits/s speed=0.00745x    frame=  315 fps=0.5 q=36.0 size=       1kB time=00:00:04.50 bitrate=   1.3kbits/s speed=0.00744x    frame=  316 fps=0.5 q=36.0 size=       1kB time=00:00:04.52 bitrate=   1.3kbits/s speed=0.00742x    frame=  319 fps=0.5 q=36.0 size=       1kB time=00:00:04.58 bitrate=   1.3kbits/s speed=0.00731x    frame=  320 fps=0.5 q=36.0 size=       1kB time=00:00:04.60 bitrate=   1.3kbits/s speed=0.00733x    frame=  321 fps=0.5 q=36.0 size=       1kB time=00:00:04.62 bitrate=   1.3kbits/s speed=0.00735x    frame=  325 fps=0.5 q=36.0 size=       1kB time=00:00:04.70 bitrate=   1.3kbits/s speed=0.00733x    frame=  327 fps=0.5 q=36.0 size=       1kB time=00:00:04.74 bitrate=   1.2kbits/s speed=0.00735x    frame=  328 fps=0.5 q=36.0 size=       1kB time=00:00:04.76 bitrate=   1.2kbits/s speed=0.00737x    frame=  329 fps=0.5 q=36.0 size=       1kB time=00:00:04.78 bitrate=   1.2kbits/s speed=0.00727x    frame=  330 fps=0.5 q=36.0 size=       1kB time=00:00:04.80 bitrate=   1.2kbits/s speed=0.00729x    frame=  331 fps=0.5 q=36.0 size=       1kB time=00:00:04.82 bitrate=   1.2kbits/s speed=0.00731x    frame=  333 fps=0.5 q=37.0 size=       1kB time=00:00:04.86 bitrate=   1.2kbits/s speed=0.00735x    frame=  334 fps=0.5 q=37.0 size=       1kB time=00:00:04.88 bitrate=   1.2kbits/s speed=0.00738x    frame=  335 fps=0.5 q=37.0 size=       1kB time=00:00:04.90 bitrate=   1.2kbits/s speed=0.00732x    frame=  336 fps=0.5 q=37.0 size=       1kB time=00:00:04.92 bitrate=   1.2kbits/s speed=0.00734x    frame=  337 fps=0.5 q=37.0 size=    2693kB time=00:00:04.94 bitrate=4464.8kbits/s speed=0.00736x    frame=  341 fps=0.5 q=37.0 size=    2693kB time=00:00:05.02 bitrate=4393.6kbits/s speed=0.00743x    frame=  342 fps=0.5 q=37.0 size=    2693kB time=00:00:05.04 bitrate=4376.2kbits/s speed=0.00745x    frame=  343 fps=0.5 q=38.0 size=    2693kB time=00:00:05.06 bitrate=4358.9kbits/s speed=0.00744x    frame=  347 fps=0.5 q=37.0 size=    2693kB time=00:00:05.14 bitrate=4291.1kbits/s speed=0.00753x    frame=  348 fps=0.5 q=37.0 size=    2693kB time=00:00:05.16 bitrate=4274.4kbits/s speed=0.00756x    frame=  349 fps=0.5 q=38.0 size=    2693kB time=00:00:05.18 bitrate=4257.9kbits/s speed=0.00755x    frame=  350 fps=0.5 q=38.0 size=    2693kB time=00:00:05.20 bitrate=4241.6kbits/s speed=0.00757x    frame=  351 fps=0.5 q=38.0 size=    2693kB time=00:00:05.22 bitrate=4225.3kbits/s speed=0.00758x    frame=  352 fps=0.5 q=38.0 size=    2693kB time=00:00:05.24 bitrate=4209.2kbits/s speed=0.0076x    frame=  353 fps=0.5 q=38.0 size=    2693kB time=00:00:05.26 bitrate=4193.2kbits/s speed=0.00762x    frame=  354 fps=0.5 q=38.0 size=    2693kB time=00:00:05.28 bitrate=4177.3kbits/s speed=0.00764x    frame=  355 fps=0.5 q=38.0 size=    2693kB time=00:00:05.30 bitrate=4161.5kbits/s speed=0.00762x    frame=  356 fps=0.5 q=38.0 size=    2693kB time=00:00:05.32 bitrate=4145.9kbits/s speed=0.00764x    frame=  357 fps=0.5 q=38.0 size=    2693kB time=00:00:05.34 bitrate=4130.4kbits/s speed=0.00764x    frame=  359 fps=0.5 q=38.0 size=    2693kB time=00:00:05.38 bitrate=4099.7kbits/s speed=0.00765x    frame=  360 fps=0.5 q=38.0 size=    2693kB time=00:00:05.40 bitrate=4084.5kbits/s speed=0.00767x    frame=  361 fps=0.5 q=38.0 size=    2693kB time=00:00:05.42 bitrate=4069.4kbits/s speed=0.00767x    frame=  363 fps=0.5 q=38.0 size=    2693kB time=00:00:05.46 bitrate=4039.6kbits/s speed=0.0077x    frame=  365 fps=0.5 q=38.0 size=    2693kB time=00:00:05.50 bitrate=4010.2kbits/s speed=0.00772x    frame=  366 fps=0.5 q=38.0 size=    2693kB time=00:00:05.52 bitrate=3995.7kbits/s speed=0.00774x    frame=  367 fps=0.5 q=38.0 size=    2693kB time=00:00:05.54 bitrate=3981.3kbits/s speed=0.00774x    frame=  368 fps=0.5 q=38.0 size=    2693kB time=00:00:05.56 bitrate=3967.0kbits/s speed=0.00776x    frame=  369 fps=0.5 q=38.0 size=    2693kB time=00:00:05.58 bitrate=3952.8kbits/s speed=0.00775x    frame=  371 fps=0.5 q=38.0 size=    2693kB time=00:00:05.62 bitrate=3924.6kbits/s speed=0.00776x    frame=  372 fps=0.5 q=38.0 size=    2693kB time=00:00:05.64 bitrate=3910.7kbits/s speed=0.00777x    frame=  373 fps=0.5 q=38.0 size=    2693kB time=00:00:05.66 bitrate=3896.9kbits/s speed=0.00778x    frame=  374 fps=0.5 q=38.0 size=    2693kB time=00:00:05.68 bitrate=3883.2kbits/s speed=0.00774x    frame=  375 fps=0.5 q=38.0 size=    2693kB time=00:00:05.70 bitrate=3869.6kbits/s speed=0.00776x    frame=  376 fps=0.5 q=38.0 size=    2693kB time=00:00:05.72 bitrate=3856.0kbits/s speed=0.00778x    frame=  378 fps=0.5 q=38.0 size=    2693kB time=00:00:05.76 bitrate=3829.3kbits/s speed=0.00782x    frame=  380 fps=0.5 q=38.0 size=    2693kB time=00:00:05.80 bitrate=3802.9kbits/s speed=0.00779x    frame=  381 fps=0.5 q=38.0 size=    2693kB time=00:00:05.82 bitrate=3789.8kbits/s speed=0.0078x    frame=  383 fps=0.5 q=38.0 size=    2693kB time=00:00:05.86 bitrate=3763.9kbits/s speed=0.00784x    frame=  386 fps=0.5 q=38.0 size=    2693kB time=00:00:05.92 bitrate=3725.8kbits/s speed=0.00781x    frame=  387 fps=0.5 q=38.0 size=    2693kB time=00:00:05.94 bitrate=3713.2kbits/s speed=0.00782x    frame=  389 fps=0.5 q=38.0 size=    2693kB time=00:00:05.98 bitrate=3688.4kbits/s speed=0.00781x    frame=  390 fps=0.5 q=38.0 size=    2693kB time=00:00:06.00 bitrate=3676.1kbits/s speed=0.00782x    frame=  391 fps=0.5 q=38.0 size=    2693kB time=00:00:06.02 bitrate=3663.9kbits/s speed=0.00784x    frame=  392 fps=0.5 q=38.0 size=    2693kB time=00:00:06.04 bitrate=3651.8kbits/s speed=0.00786x    frame=  393 fps=0.5 q=38.0 size=    2693kB time=00:00:06.06 bitrate=3639.7kbits/s speed=0.00787x    frame=  395 fps=0.5 q=38.0 size=    2693kB time=00:00:06.10 bitrate=3615.9kbits/s speed=0.0078x    frame=  396 fps=0.5 q=38.0 size=    2693kB time=00:00:06.12 bitrate=3604.0kbits/s speed=0.00781x    frame=  398 fps=0.5 q=38.0 size=    2693kB time=00:00:06.16 bitrate=3580.6kbits/s speed=0.00785x    frame=  399 fps=0.5 q=38.0 size=    2693kB time=00:00:06.18 bitrate=3569.1kbits/s speed=0.00787x    frame=  401 fps=0.5 q=38.0 size=    2693kB time=00:00:06.22 bitrate=3546.1kbits/s speed=0.00783x    frame=  403 fps=0.5 q=38.0 size=    2693kB time=00:00:06.26 bitrate=3523.5kbits/s speed=0.00781x    frame=  404 fps=0.5 q=38.0 size=    2693kB time=00:00:06.28 bitrate=3512.2kbits/s speed=0.00782x    frame=  405 fps=0.5 q=38.0 size=    2693kB time=00:00:06.30 bitrate=3501.1kbits/s speed=0.00783x    frame=  407 fps=0.5 q=38.0 size=    2693kB time=00:00:06.34 bitrate=3479.0kbits/s speed=0.00787x    frame=  408 fps=0.5 q=38.0 size=    2693kB time=00:00:06.36 bitrate=3468.1kbits/s speed=0.00789x    frame=  409 fps=0.5 q=38.0 size=    2693kB time=00:00:06.38 bitrate=3457.2kbits/s speed=0.00779x    frame=  411 fps=0.5 q=38.0 size=    2693kB time=00:00:06.42 bitrate=3435.7kbits/s speed=0.00782x    frame=  413 fps=0.5 q=38.0 size=    2693kB time=00:00:06.46 bitrate=3414.4kbits/s speed=0.00787x    frame=  414 fps=0.5 q=38.0 size=    2693kB time=00:00:06.48 bitrate=3403.9kbits/s speed=0.00788x    frame=  415 fps=0.5 q=38.0 size=    2693kB time=00:00:06.50 bitrate=3393.4kbits/s speed=0.00781x    frame=  416 fps=0.5 q=38.0 size=    2693kB time=00:00:06.52 bitrate=3383.0kbits/s speed=0.00777x    frame=  417 fps=0.5 q=38.0 size=    2693kB time=00:00:06.54 bitrate=3372.6kbits/s speed=0.00778x    frame=  418 fps=0.5 q=38.0 size=    2693kB time=00:00:06.56 bitrate=3362.3kbits/s speed=0.00779x    frame=  421 fps=0.5 q=38.0 size=    2693kB time=00:00:06.62 bitrate=3331.9kbits/s speed=0.00782x    frame=  422 fps=0.5 q=38.0 size=    2693kB time=00:00:06.64 bitrate=3321.8kbits/s speed=0.00776x    frame=  423 fps=0.5 q=38.0 size=    2693kB time=00:00:06.66 bitrate=3311.9kbits/s speed=0.00777x    frame=  424 fps=0.5 q=38.0 size=    2693kB time=00:00:06.68 bitrate=3302.0kbits/s speed=0.00779x    frame=  425 fps=0.5 q=38.0 size=    2693kB time=00:00:06.70 bitrate=3292.1kbits/s speed=0.0078x    frame=  426 fps=0.5 q=38.0 size=    2693kB time=00:00:06.72 bitrate=3282.3kbits/s speed=0.0078x    frame=  427 fps=0.5 q=38.0 size=    2693kB time=00:00:06.74 bitrate=3272.6kbits/s speed=0.00771x    frame=  428 fps=0.5 q=38.0 size=    2693kB time=00:00:06.76 bitrate=3262.9kbits/s speed=0.00772x    frame=  429 fps=0.5 q=38.0 size=    2693kB time=00:00:06.78 bitrate=3253.3kbits/s speed=0.00773x    frame=  433 fps=0.5 q=38.0 size=    2693kB time=00:00:06.86 bitrate=3215.3kbits/s speed=0.00771x    frame=  434 fps=0.5 q=38.0 size=    2693kB time=00:00:06.88 bitrate=3206.0kbits/s speed=0.00773x    frame=  435 fps=0.5 q=38.0 size=    2693kB time=00:00:06.90 bitrate=3196.7kbits/s speed=0.00774x    frame=  437 fps=0.5 q=38.0 size=    2693kB time=00:00:06.94 bitrate=3178.3kbits/s speed=0.00776x    frame=  438 fps=0.5 q=38.0 size=    2693kB time=00:00:06.96 bitrate=3169.1kbits/s speed=0.00767x    frame=  439 fps=0.5 q=38.0 size=    2693kB time=00:00:06.98 bitrate=3160.1kbits/s speed=0.00768x    frame=  440 fps=0.5 q=38.0 size=    2693kB time=00:00:07.00 bitrate=3151.0kbits/s speed=0.00769x    frame=  443 fps=0.5 q=38.0 size=    2693kB time=00:00:07.06 bitrate=3124.3kbits/s speed=0.00775x    frame=  444 fps=0.5 q=38.0 size=    2693kB time=00:00:07.08 bitrate=3115.4kbits/s speed=0.00768x    frame=  445 fps=0.5 q=38.0 size=    2693kB time=00:00:07.10 bitrate=3106.7kbits/s speed=0.00769x    frame=  446 fps=0.5 q=38.0 size=    2693kB time=00:00:07.12 bitrate=3097.9kbits/s speed=0.00769x    frame=  447 fps=0.5 q=38.0 size=    2693kB time=00:00:07.14 bitrate=3089.3kbits/s speed=0.00771x    frame=  448 fps=0.5 q=38.0 size=    2693kB time=00:00:07.16 bitrate=3080.6kbits/s speed=0.00764x    frame=  449 fps=0.5 q=38.0 size=    2693kB time=00:00:07.18 bitrate=3072.0kbits/s speed=0.00765x    frame=  450 fps=0.5 q=38.0 size=    2693kB time=00:00:07.20 bitrate=3063.5kbits/s speed=0.00766x    frame=  451 fps=0.5 q=38.0 size=    2693kB time=00:00:07.22 bitrate=3055.0kbits/s speed=0.00768x    frame=  452 fps=0.5 q=38.0 size=    2693kB time=00:00:07.24 bitrate=3046.6kbits/s speed=0.00768x    frame=  454 fps=0.5 q=38.0 size=    2693kB time=00:00:07.28 bitrate=3029.9kbits/s speed=0.00766x    frame=  455 fps=0.5 q=38.0 size=    2693kB time=00:00:07.30 bitrate=3021.6kbits/s speed=0.00766x    frame=  456 fps=0.5 q=38.0 size=    2693kB time=00:00:07.32 bitrate=3013.3kbits/s speed=0.00767x    frame=  457 fps=0.5 q=38.0 size=    2693kB time=00:00:07.34 bitrate=3005.1kbits/s speed=0.00768x    frame=  458 fps=0.5 q=38.0 size=    2693kB time=00:00:07.36 bitrate=2996.9kbits/s speed=0.0076x    frame=  459 fps=0.5 q=38.0 size=    2693kB time=00:00:07.38 bitrate=2988.8kbits/s speed=0.00761x    frame=  460 fps=0.5 q=38.0 size=    2693kB time=00:00:07.40 bitrate=2980.7kbits/s speed=0.00762x    frame=  462 fps=0.5 q=38.0 size=    2693kB time=00:00:07.44 bitrate=2964.7kbits/s speed=0.00765x    frame=  463 fps=0.5 q=38.0 size=    2693kB time=00:00:07.46 bitrate=2956.8kbits/s speed=0.00765x    frame=  464 fps=0.5 q=38.0 size=    2693kB time=00:00:07.48 bitrate=2948.9kbits/s speed=0.00762x    frame=  465 fps=0.5 q=38.0 size=    2693kB time=00:00:07.50 bitrate=2941.0kbits/s speed=0.00761x    frame=  466 fps=0.5 q=38.0 size=    2693kB time=00:00:07.52 bitrate=2933.2kbits/s speed=0.00762x    frame=  468 fps=0.5 q=38.0 size=    2693kB time=00:00:07.56 bitrate=2917.7kbits/s speed=0.00759x    frame=  469 fps=0.5 q=38.0 size=    2693kB time=00:00:07.58 bitrate=2910.0kbits/s speed=0.0076x    frame=  470 fps=0.5 q=38.0 size=    2693kB time=00:00:07.60 bitrate=2902.3kbits/s speed=0.00761x    frame=  473 fps=0.5 q=38.0 size=    2693kB time=00:00:07.66 bitrate=2879.6kbits/s speed=0.00766x    frame=  474 fps=0.5 q=38.0 size=    2693kB time=00:00:07.68 bitrate=2872.1kbits/s speed=0.00756x    frame=  475 fps=0.5 q=38.0 size=    2693kB time=00:00:07.70 bitrate=2864.6kbits/s speed=0.00757x    frame=  477 fps=0.5 q=38.0 size=    2693kB time=00:00:07.74 bitrate=2849.8kbits/s speed=0.0076x    frame=  480 fps=0.5 q=38.0 size=    2693kB time=00:00:07.80 bitrate=2827.9kbits/s speed=0.00753x    frame=  481 fps=0.5 q=38.0 size=    2693kB time=00:00:07.82 bitrate=2820.7kbits/s speed=0.00754x    frame=  482 fps=0.5 q=38.0 size=    2693kB time=00:00:07.84 bitrate=2813.5kbits/s speed=0.00755x    frame=  486 fps=0.5 q=38.0 size=    2693kB time=00:00:07.92 bitrate=2785.0kbits/s speed=0.00751x    frame=  487 fps=0.5 q=38.0 size=    2693kB time=00:00:07.94 bitrate=2778.0kbits/s speed=0.00752x    frame=  492 fps=0.5 q=38.0 size=    2693kB time=00:00:08.04 bitrate=2743.5kbits/s speed=0.00753x    frame=  493 fps=0.5 q=38.0 size=    2693kB time=00:00:08.06 bitrate=2736.7kbits/s speed=0.00753x    frame=  495 fps=0.5 q=38.0 size=    2693kB time=00:00:08.10 bitrate=2723.2kbits/s speed=0.00751x    frame=  496 fps=0.5 q=38.0 size=    2693kB time=00:00:08.12 bitrate=2716.5kbits/s speed=0.00752x    frame=  497 fps=0.5 q=38.0 size=    2693kB time=00:00:08.14 bitrate=2709.8kbits/s speed=0.00753x    frame=  499 fps=0.5 q=38.0 size=    2693kB time=00:00:08.18 bitrate=2696.5kbits/s speed=0.00755x    frame=  500 fps=0.5 q=38.0 size=    2693kB time=00:00:08.20 bitrate=2690.0kbits/s speed=0.00746x    frame=  500 fps=0.4 q=-1.0 Lsize=    6100kB time=00:00:09.94 bitrate=5026.6kbits/s speed=0.00742x    
video:6096kB audio:0kB subtitle:0kB other streams:0kB global headers:0kB muxing overhead: 0.070765%
bench: utime=5218.912s
bench: maxrss=6480512kB
[libx264 @ 0x26d0120] frame I:3     Avg QP:34.40  size:238421
[libx264 @ 0x26d0120] frame P:45    Avg QP:36.55  size: 39919
[libx264 @ 0x26d0120] frame B:452   Avg QP:39.51  size:  8251
[libx264 @ 0x26d0120] consecutive B-frames:  0.6%  0.0%  0.0%  0.0%  0.0%  0.0%  1.4%  3.2%  7.2% 30.0% 19.8%  9.6%  5.2% 14.0%  9.0%  0.0%  0.0%
[libx264 @ 0x26d0120] mb I  I16..4: 41.7% 51.4%  7.0%
[libx264 @ 0x26d0120] mb P  I16..4:  0.1%  0.6%  0.0%  P16..4: 35.1% 18.1%  2.9%  0.2%  0.0%    skip:42.9%
[libx264 @ 0x26d0120] mb B  I16..4:  0.0%  0.0%  0.0%  B16..8: 27.5%  1.4%  0.0%  direct: 0.0%  skip:71.1%  L0:48.8% L1:51.1% BI: 0.0%
[libx264 @ 0x26d0120] final ratefactor: 29.64
[libx264 @ 0x26d0120] 8x8 transform intra:54.8% inter:76.7%
[libx264 @ 0x26d0120] direct mvs  spatial:98.7% temporal:1.3%
[libx264 @ 0x26d0120] coded y,uvDC,uvAC intra: 54.2% 35.6% 15.8% inter: 0.5% 0.4% 0.0%
[libx264 @ 0x26d0120] i16 v,h,dc,p:  5% 21%  2% 72%
[libx264 @ 0x26d0120] i8 v,h,dc,ddl,ddr,vr,hd,vl,hu:  2%  2% 16% 13% 19% 12% 18%  7% 11%
[libx264 @ 0x26d0120] i4 v,h,dc,ddl,ddr,vr,hd,vl,hu:  2%  3%  7% 15% 19% 12% 19%  8% 15%
[libx264 @ 0x26d0120] i8c dc,h,v,p: 19% 60% 12%  8%
[libx264 @ 0x26d0120] Weighted P-Frames: Y:4.4% UV:2.2%
[libx264 @ 0x26d0120] ref P L0: 61.6% 22.2%  7.8%  2.0%  1.3%  1.6%  1.1%  0.3%  0.3%  0.3%  0.2%  0.3%  0.2%  0.3%  0.3%  0.1%
[libx264 @ 0x26d0120] ref B L0: 96.4%  1.7%  1.3%  0.2%  0.1%  0.1%  0.1%  0.0%  0.0%  0.0%  0.0%  0.0%  0.0%  0.0%  0.0%
[libx264 @ 0x26d0120] ref B L1: 97.5%  2.5%
[libx264 @ 0x26d0120] kb/s:4992.90
